@startuml

class Ship {

    -int MMSI <<b>PK>
    -String name
    -int IMO
    -int numberEnergyGenerator
    -int powerOutput
    -String callSign
    -int vesselType
    -double length
    -double width
    -int maximumCapacity
    -double draft
}

note left: <b>MMSI</b> : 9 digits unique number\n<b>IMO</b> : 7 digits unique number\n<b>callSign</b> : alphanumeric unique number


class Container {

    -String containerID <<b>PK>
    -int checkDigit
    -String ISO
    -int gross
    -int tare
    -int payload
    -int maxVolume
    -int repairRecommendation

}

note bottom: <b>checkDigit</b> : last number in containerID\n<b>ISO</b> : 4 alphanumeric unique number


class PortAndWarehouse {
    -int code <<b>PK>
    -String continent
    -String country
    -String port
    -double latitude
    -double longitude

}


class Truck{
}

class User{
    -String id <<b>PK>
    -String password
    -UserRole role
}

class UserRole{
    -String id <<b>PK>
    -String description
}

class Client{
}

class TrafficManager{
}

class PositionData{
    -Date baseDateTime
    -double latitude
    -double longitude
    -double sog
    -double cog
    -double heading
    -int position
    -String transceiver

}


class CargoManifest{
    HashMap<Container, int>
}

class Country {

}

class Company {

}

'Inheritance connections

Client <|-- User
TrafficManager <|-- User

'Aggregation connections

User o-- UserRole
Ship o-- Container
Truck o-- Container
Company o-- Ship
Company o-- Truck
Company o-- PortAndWarehouse


'Composition connections

Company *-- User
Company *-- UserRole
Ship *-- CargoManifest : 1
Ship *-- PositionData
PortAndWarehouse *-- Ship

'Association connections

CargoManifest --> Ship
Ship <--> Country

@enduml